<?xml version="1.0" standalone="no"?><!DOCTYPE svg PUBLIC "-//W3C//DTD SVG 1.1//EN" "http://www.w3.org/Graphics/SVG/1.1/DTD/svg11.dtd"><svg t="1724897383399" class="icon" viewBox="0 0 1024 1024" version="1.1" xmlns="http://www.w3.org/2000/svg" p-id="3480" xmlns:xlink="http://www.w3.org/1999/xlink" width="200" height="200"><path d="M606.28 878.59c67.931 24.734 142.137-10.467 166.796-78.242l177.454-487.742c24.598-67.61-10.040-142.63-77.5-167.194-67.931-24.734-142.137 10.467-166.796 78.242l-177.454 487.744c-24.598 67.61 10.040 142.629 77.5 167.193z" fill="#000000" p-id="3481"></path><path d="M151.005 878.59c67.958 24.734 142.195-10.467 166.862-78.242l177.523-487.743c24.608-67.61-10.044-142.63-77.531-167.194-67.958-24.734-142.194 10.466-166.862 78.242l-177.524 487.745c-24.607 67.61 10.045 142.629 77.532 167.193z" fill="#000000" p-id="3482"></path></svg>