<?xml version="1.0" standalone="no"?><!DOCTYPE svg PUBLIC "-//W3C//DTD SVG 1.1//EN" "http://www.w3.org/Graphics/SVG/1.1/DTD/svg11.dtd"><svg t="1724379575473" class="icon" viewBox="0 0 1024 1024" version="1.1" xmlns="http://www.w3.org/2000/svg" p-id="9564" xmlns:xlink="http://www.w3.org/1999/xlink" width="200" height="200"><path d="M448.984963 577.634079l-97.536711-290.307184-103.677912 290.307184h201.214623zM305.93112 189.83534h98.439829l233.184989 657.06328h-95.414385l-65.159942-196.834502H222.844292l-69.585219 196.834502H63.985889L305.93112 189.83534z m539.928914 0c33.099264 0 60.373418 9.121489 82.003087 27.590245 21.132954 18.333289 31.699431 41.769193 31.699431 71.210831 0 28.493363-11.514751 54.232218-33.641134 77.668122-13.456454 13.817701-37.434229 31.247872-71.030207 52.877541-34.995811 22.036072-56.128765 41.317635-63.805265 57.935h168.883009v47.233055h-238.919786c0-33.505667 11.063192-62.495745 34.047537-87.286325 12.417868-13.817701 38.879217-34.002381 78.661551-60.192794 22.036072-14.675663 37.434229-27.048375 47.052432-36.802046 14.856286-16.075495 22.442475-33.505667 22.442475-51.838956 0-17.972042-5.238083-31.293028-14.856286-40.008114-10.024606-8.715086-24.835737-12.824271-44.614014-12.824271-21.042642 0-36.937514 6.863694-47.413679 20.681395-10.566477 12.779115-16.301274 32.602549-17.33986 58.296247H722.945716c0.541871-36.75689 11.514751-66.063059 33.641134-88.641002 22.487631-23.977775 52.290515-35.898928 89.273184-35.898928z" fill="#000000" p-id="9565"></path></svg>